<svg id="Capa_1" enable-background="new 0 0 512 512" height="512" viewBox="0 0 512 512" width="512" xmlns="http://www.w3.org/2000/svg"><g><g><g><path d="m272.887 259.868c-14.655-18.059-27.412-30.158-27.412-30.158s-70.431 66.63-70.431 120.765c0 38.891 31.533 70.42 70.431 70.42s70.432-31.528 70.432-70.42c0-7.229-1.264-14.688-3.453-22.187" fill="#ff5d7d"/><path d="m336.956 291.944c0-28.464-37.152-63.701-37.152-63.701s-37.151 35.146-37.151 63.701c0 20.514 16.633 37.145 37.151 37.145 20.519 0 37.152-16.63 37.152-37.145z" fill="#ff9eb1"/></g><g><path d="m57.522 145.25 198.478-135.25 198.478 135.25z" fill="#ccf5fc"/><path d="m29.056 145.25h453.889v45.222h-453.889z" fill="#faf7f5"/><g><g><path d="m366.021 190.472h98.452v42.791h-98.452z" fill="#ccf5fc"/><path d="m366.021 413.987h98.452v42.791h-98.452z" fill="#ccf5fc"/><path d="m390.378 233.263h49.739v180.723h-49.739z" fill="#faf7f5"/></g><g><path d="m47.527 190.472h98.452v42.791h-98.452z" fill="#ccf5fc"/><path d="m47.527 413.987h98.452v42.791h-98.452z" fill="#ccf5fc"/><path d="m71.884 233.263h49.739v180.723h-49.739z" fill="#faf7f5"/></g></g></g><path d="m210.794 456.778h-181.738v45.222h453.889v-45.222h-181.738" fill="#b8ecbc"/></g><g><g><path d="m325.907 350.474c0-5.714-.693-11.74-2.062-17.986 13.826-8.227 23.111-23.322 23.111-40.544 0-31.843-36.148-67.047-40.27-70.956-3.855-3.657-9.895-3.66-13.754-.009-1.961 1.855-11.168 10.773-20.284 23.052-11.233-12.953-19.851-21.159-20.291-21.577-3.855-3.656-9.896-3.66-13.754-.009-3.004 2.841-73.56 70.253-73.56 128.029 0 44.343 36.081 80.419 80.432 80.419s80.432-36.075 80.432-80.419zm-26.102-107.883c11.15 12.263 27.151 33.354 27.151 49.353 0 14.968-12.18 27.145-27.151 27.145-14.972 0-27.151-12.177-27.151-27.145-.001-15.998 16.004-37.094 27.151-49.353zm-54.329 168.303c-33.322 0-60.432-27.104-60.432-60.419 0-39.625 43.279-88.688 60.43-106.572 4.128 4.307 9.764 10.42 15.93 17.762-5.106 9.681-8.75 20.141-8.75 30.279 0 25.996 21.152 47.145 47.151 47.145 1.664 0 3.309-.087 4.929-.256.779 4.08 1.173 7.975 1.173 11.642 0 33.315-27.109 60.419-60.431 60.419z"/><path d="m464.473 243.263c5.522 0 10-4.477 10-10v-32.791h8.472c5.522 0 10-4.477 10-10v-45.222c0-5.523-4.478-10-10-10h-25.385l-195.929-133.513c-3.396-2.315-7.865-2.315-11.262 0l-195.929 133.513h-25.384c-5.522 0-10 4.477-10 10v45.222c0 5.523 4.478 10 10 10h8.472v32.791c0 5.523 4.478 10 10 10h14.357v160.724h-14.358c-5.522 0-10 4.477-10 10v32.792h-8.472c-5.522 0-10 4.477-10 10v45.221c0 5.523 4.478 10 10 10h453.889c5.522 0 10-4.477 10-10v-45.222c0-5.523-4.478-10-10-10h-8.472v-32.792c0-5.523-4.478-10-10-10h-14.357v-160.723zm-10-20h-78.452v-22.791h78.452zm-198.473-201.162 166.045 113.149h-332.09zm-216.944 133.149h433.889v25.222h-433.889zm18.471 45.222h78.452v22.791h-78.452zm24.357 42.791h29.739v160.724h-29.739zm-24.357 180.724h78.452v22.792h-78.452zm415.417 68.013h-433.888v-25.222h171.738c5.523 0 10-4.477 10-10s-4.477-10-10-10h-54.814v-32.792c0-5.523-4.478-10-10-10h-14.357v-160.723h14.357c5.522 0 10-4.477 10-10v-32.791h200.041v32.791c0 5.523 4.478 10 10 10h14.357v160.724h-14.357c-5.522 0-10 4.477-10 10v32.792h-54.814c-5.523 0-10 4.477-10 10s4.477 10 10 10h171.738v25.221zm-18.471-45.222h-78.452v-22.792h78.452zm-24.357-42.791h-29.739v-160.724h29.739z"/><path d="m276.262 77.833h-10.02v-10.017c0-5.523-4.478-10-10-10s-10 4.477-10 10v10.018h-10.503c-5.522 0-10 4.477-10 10s4.478 10 10 10h10.503v10.5c0 5.523 4.478 10 10 10s10-4.477 10-10v-10.5h10.02c5.523 0 10-4.477 10-10 0-5.524-4.478-10.001-10-10.001z"/><path d="m265.42 452.95c-1.635-3.924-5.703-6.454-9.949-6.147-4.156.3-7.746 3.233-8.896 7.232-1.15 3.998.384 8.457 3.783 10.871 3.372 2.395 7.924 2.462 11.371.185 3.949-2.609 5.475-7.785 3.691-12.141z"/></g></g></g></svg>