<svg width="25" height="25" viewBox="0 0 70 70" fill="none" xmlns="http://www.w3.org/2000/svg">
<g clip-path="url(#clip0)">
<path d="M57.7645 70C56.2543 70 55.0301 68.7758 55.0301 67.2656V50.3125C55.0301 43.873 57.3308 40.3654 59.1797 37.5469C60.757 35.1422 62.0028 33.2428 62.0028 29.668C62.0028 28.4747 61.9147 27.2755 61.7414 26.1036C61.5202 24.6096 62.552 23.2194 64.0458 22.9983C65.5386 22.7772 66.93 23.8088 67.1511 25.3027C67.3638 26.7389 67.4715 28.2077 67.4715 29.668C67.4715 34.8763 65.4957 37.8886 63.7524 40.5463C62.0066 43.2079 60.4989 45.5064 60.4989 50.3125V67.2656C60.4989 68.7758 59.2746 70 57.7645 70ZM29.1903 67.2656V66.1719C29.1903 61.6487 25.5104 57.9688 20.9872 57.9688H18.6649C16.0296 57.9688 13.8729 55.9887 13.6486 53.363L13.0582 46.4548C12.8397 43.8996 10.741 41.9727 8.17647 41.9727C7.25444 41.9727 6.78344 41.3595 6.62376 41.0957C6.46735 40.8375 6.14838 40.1509 6.56456 39.3545C7.81704 36.958 9.8696 33.9131 12.6654 30.3047C13.0368 29.8253 13.2382 29.2362 13.2382 28.6299C13.2382 26.2747 13.4783 24.0596 13.9517 22.0458C14.1056 21.392 14.5089 20.837 15.0876 20.4831C15.6806 20.1206 16.379 20.0129 17.0548 20.1794C22.1512 21.438 28.3161 22.1659 34.883 22.2846C36.3895 22.3137 37.6391 21.1101 37.6663 19.6001C37.6935 18.0902 36.4916 16.844 34.9817 16.8168C28.8172 16.7054 23.0716 16.0323 18.3658 14.8702C16.2609 14.3504 14.0834 14.6869 12.2343 15.8177C10.3995 16.9397 9.11887 18.707 8.62819 20.794C8.12342 22.941 7.83905 25.255 7.78067 27.685C5.03741 31.2765 3.0502 34.2716 1.7176 36.8215C0.535396 39.0839 0.620709 41.7409 1.94606 43.929C3.18692 45.9777 5.2928 47.2574 7.65188 47.4231L8.19944 53.8286C8.4242 56.4569 9.6179 58.887 11.5609 60.671C13.504 62.455 16.027 63.4375 18.6649 63.4375H20.987C22.4948 63.4375 23.7214 64.6641 23.7214 66.1719V67.2656C23.7214 68.7758 24.9456 70 26.4558 70C27.966 70 29.1903 68.7758 29.1903 67.2656ZM57.2041 19.9414C60.5417 19.0978 63.2181 18.0616 65.1593 16.8618C68.4264 14.8422 69.1122 12.5997 69.1122 11.0742C69.1122 7.40906 65.532 4.53961 58.4715 2.54557C52.6587 0.903984 44.9788 0 36.8465 0C29.4182 0 22.2391 0.771094 16.6318 2.17109C10.2854 3.75566 6.40104 5.99607 5.08649 8.82998C4.45116 10.1999 5.04657 11.8256 6.41649 12.4611C7.78655 13.0964 9.41213 12.501 10.0477 11.1311C10.3525 10.4742 12.3977 8.86512 17.9568 7.47701C23.1432 6.18187 29.8517 5.46875 36.8465 5.46875C44.0221 5.46875 50.8582 6.21428 56.0954 7.56807C61.5122 8.96834 63.3277 10.5306 63.62 11.0742C63.3224 11.6294 61.4547 13.2263 55.864 14.6394C54.3998 15.0095 53.5131 16.4963 53.8831 17.9605C54.1964 19.1997 55.3097 20.0255 56.5321 20.0255C56.7537 20.0255 56.9792 19.9983 57.2041 19.9414ZM41.5104 30.3749L45.8663 26.0369C49.3295 22.5719 49.3287 16.9347 45.8601 13.4664L41.5099 9.13623C40.4395 8.07092 38.7082 8.07475 37.6429 9.14512C36.5776 10.2155 36.5816 11.9468 37.6518 13.0121L41.9977 17.3379C43.33 18.6702 43.3303 20.8383 42.0027 22.1663L37.6513 26.4999C36.5813 27.5655 36.5776 29.2969 37.6433 30.3669C38.1775 30.9034 38.879 31.1717 39.5808 31.1717C40.2787 31.1719 40.9768 30.9064 41.5104 30.3749Z" fill="#A41F04"/>
</g>
<defs>
<clipPath id="clip0">
<rect width="70" height="70" fill="white"/>
</clipPath>
</defs>
</svg>
