<svg width="70" height="61" viewBox="0 0 70 61" fill="none" xmlns="http://www.w3.org/2000/svg">
<g clip-path="url(#clip0)">
<path d="M63.9378 23.9016C62.1066 23.9016 61.1611 21.9581 62.4713 20.8164C66.9815 16.8861 66.9815 10.4911 62.4713 6.56085C57.9612 2.6306 50.6227 2.6306 46.1126 6.56085C45.3027 7.26668 43.9895 7.26668 43.1795 6.56085C42.3695 5.85502 42.3695 4.71073 43.1795 4.0049C49.3068 -1.33472 59.2771 -1.33472 65.4044 4.0049C71.5318 9.34453 71.5318 18.0327 65.4044 23.3723C64.9994 23.7252 64.4686 23.9016 63.9378 23.9016Z" fill="#A41F04"/>
<path d="M4.59558 56.9955C-1.53186 51.6559 -1.53186 42.9677 4.59558 37.6281C5.40541 36.9223 6.71867 36.9223 7.52864 37.6281C8.3386 38.3339 8.3386 39.4782 7.52864 40.184C3.01851 44.1143 3.01851 50.5093 7.52864 54.4396C12.0388 58.3698 19.3773 58.3698 23.8874 54.4396C24.6972 53.7337 26.0105 53.7337 26.8205 54.4396C27.6304 55.1454 27.6304 56.2897 26.8205 56.9955C20.6933 62.335 10.7232 62.3354 4.59558 56.9955Z" fill="#A41F04"/>
<path d="M69.1298 26.4067C50.685 45.3996 51.4371 44.6332 51.3279 44.7284C50.7251 45.2538 30.3169 60.2306 30.303 60.2415C29.4776 60.8512 28.2553 60.8018 27.4962 60.1403C3.10412 38.8843 29.6532 62.0198 0.986282 37.0388C0.223049 36.3737 0.173273 35.3097 0.870138 34.5928C21.5022 13.3429 17.9529 16.8472 20.0436 15.2518C21.3295 14.3009 38.4334 1.68948 39.6969 0.758091C40.5196 0.150822 41.7405 0.194198 42.5037 0.859302C43.2382 1.49934 68.0484 23.1197 69.0136 23.9608C69.7769 24.6259 69.8266 25.6898 69.1298 26.4067Z" fill="#A41F04"/>
<path d="M69.1297 26.4067C50.6849 45.3996 51.4371 44.6332 51.3279 44.7284C23.214 20.2292 19.1338 16.7399 18.73 16.2531C19.0499 15.9592 32.8572 5.7995 39.6968 0.758091C40.5195 0.150822 41.7404 0.194198 42.5037 0.859302C43.3645 1.60935 67.6284 22.7537 69.0136 23.9608C69.7768 24.6259 69.8266 25.6898 69.1297 26.4067Z" fill="#A41F04"/>
<path d="M41.1164 14.1165C29.4615 27.1861 31.1497 25.7058 16.1989 35.8303C15.2966 36.4419 13.9932 36.303 13.2883 35.5126C12.5853 34.7245 12.7486 33.5889 13.6529 32.9762C28.5622 22.8823 26.8285 24.2502 37.841 11.8979C38.544 11.1098 39.8473 10.9675 40.7517 11.5802C41.6561 12.1926 41.8194 13.3284 41.1164 14.1165Z" fill="white"/>
<path d="M29.8857 26.0435L26.9526 23.4876C30.0822 20.7604 31.1143 19.4431 37.8412 11.8979C38.5441 11.1098 39.8474 10.9675 40.7518 11.5802C41.6562 12.1928 41.8195 13.3285 41.1164 14.1166C34.506 21.5293 33.2517 23.1102 29.8857 26.0435Z" fill="#FDFDFD"/>
<path d="M55.1522 26.3373C43.7359 39.243 45.1822 38.0125 30.2229 48.0614C29.3118 48.6744 28.0108 48.5204 27.3143 47.7334C26.6143 46.9427 26.7824 45.8079 27.6907 45.1987C42.4914 35.2564 40.9811 36.437 51.8671 24.1307C52.5662 23.3392 53.8684 23.1926 54.7758 23.8027C55.6831 24.4109 55.8522 25.5467 55.1522 26.3373Z" fill="white"/>
<path d="M54.7758 23.8027C55.6831 24.411 55.8522 25.5467 55.1522 26.3373C48.7655 33.5573 47.4097 35.274 43.9439 38.2941L41.0108 35.7382C44.1423 33.0093 45.1169 31.7615 51.8671 24.1307C52.5662 23.3392 53.8685 23.1926 54.7758 23.8027Z" fill="#FAFAFA"/>
<path d="M48.1343 20.2269C36.5414 33.2791 38.1151 31.8931 23.2109 41.9459C22.3061 42.5551 21.0042 42.415 20.3004 41.623C19.6003 40.834 19.7656 39.6983 20.6719 39.0874C35.5768 29.0337 33.932 30.3107 44.8542 18.0142C45.5553 17.2244 46.8586 17.0804 47.7639 17.6905C48.6692 18.3023 48.8354 19.4372 48.1343 20.2269Z" fill="white"/>
<path d="M36.9144 32.1685L33.9813 29.6125C37.1631 26.8398 38.2351 25.4663 44.8542 18.0144C45.5552 17.2246 46.8585 17.0806 47.7639 17.6906C48.6693 18.3024 48.8355 19.4373 48.1345 20.2269C41.6132 27.5688 40.3305 29.1914 36.9144 32.1685Z" fill="white"/>
</g>
<defs>
<clipPath id="clip0">
<rect width="70" height="61" fill="white"/>
</clipPath>
</defs>
</svg>
