<svg id="Capa_1" enable-background="new 0 0 512 512" height="512" viewBox="0 0 512 512" width="512" xmlns="http://www.w3.org/2000/svg"><g><g><path clip-rule="evenodd" d="m109.467 148.923h293.066v361.326h-293.066z" fill="#edf4ff" fill-rule="evenodd"/></g><g><path clip-rule="evenodd" d="m329.611 376.553h-147.222c-4.172 0-7.6 3.249-7.6 7.212v126.483h81.211 81.181v-126.483c0-3.964-3.398-7.212-7.57-7.212z" fill="#f9f7f8" fill-rule="evenodd"/></g><g><path clip-rule="evenodd" d="m98.913 148.918h70.035l86.269-13.686 87.835 13.686h70.035c3.725 0 6.765-3.04 6.765-6.765v-34.75c0-3.725-3.04-6.765-6.765-6.765h-314.174c-3.725 0-6.795 3.04-6.795 6.765v34.75c0 3.725 3.07 6.765 6.795 6.765z" fill="#7e707d" fill-rule="evenodd"/></g><g><path clip-rule="evenodd" d="m380.424 107.403v34.75c0 3.696-3.01 6.735-6.705 6.765h28.819 10.55c3.725 0 6.765-3.04 6.765-6.765v-34.75c0-3.725-3.04-6.765-6.765-6.765h-39.428c3.724-.001 6.764 3.039 6.764 6.765z" fill="#6a5d6a" fill-rule="evenodd"/></g><g><path clip-rule="evenodd" d="m0 231.74v275.418c0 1.707 1.384 3.091 3.091 3.091h106.373v-278.509z" fill="#ddeafb" fill-rule="evenodd"/></g><g><path clip-rule="evenodd" d="m402.537 231.74v278.508h106.373c1.707 0 3.091-1.384 3.091-3.091v-275.417z" fill="#ddeafb" fill-rule="evenodd"/></g><g><path clip-rule="evenodd" d="m109.463 186.38h-103.652c-3.219 0-5.811 2.623-5.811 5.841v39.519h109.463z" fill="#7e707d" fill-rule="evenodd"/></g><g><path clip-rule="evenodd" d="m402.537 186.38v45.36h109.463v-39.519c0-3.219-2.623-5.841-5.811-5.841z" fill="#7e707d" fill-rule="evenodd"/></g><g><path clip-rule="evenodd" d="m83.744 231.74h25.719v278.508h-25.719z" fill="#cbe2ff" fill-rule="evenodd"/></g><g><path clip-rule="evenodd" d="m374.91 148.918v37.462 45.36 278.508h27.627v-278.508-45.36-37.462z" fill="#dbeaff" fill-rule="evenodd"/></g><g><path clip-rule="evenodd" d="m166.117 268.666c-1.788 0-3.248 1.46-3.248 3.278v32.485c0 1.788 1.46 3.249 3.248 3.249h35.763c1.788 0 3.278-1.46 3.278-3.249v-32.485c0-1.818-1.49-3.278-3.278-3.278z" fill="#f9f7f8" fill-rule="evenodd"/></g><g><path clip-rule="evenodd" d="m234.84 271.944v32.485c0 1.788 1.49 3.249 3.278 3.249h35.763c1.788 0 3.248-1.46 3.248-3.249v-32.485c0-1.818-1.46-3.278-3.248-3.278h-35.763c-1.787 0-3.278 1.46-3.278 3.278z" fill="#f9f7f8" fill-rule="evenodd"/></g><g><path clip-rule="evenodd" d="m306.842 271.944v32.485c0 1.788 1.46 3.249 3.278 3.249h35.733c1.818 0 3.278-1.46 3.278-3.249v-32.485c0-1.818-1.46-3.278-3.278-3.278h-35.733c-1.817 0-3.278 1.46-3.278 3.278z" fill="#f9f7f8" fill-rule="evenodd"/></g><g><path clip-rule="evenodd" d="m306.842 201.133v32.485c0 1.788 1.46 3.278 3.278 3.278h35.733c1.818 0 3.278-1.49 3.278-3.278v-32.485c0-1.788-1.46-3.278-3.278-3.278h-35.733c-1.817-.001-3.278 1.49-3.278 3.278z" fill="#f9f7f8" fill-rule="evenodd"/></g><g><path clip-rule="evenodd" d="m234.84 201.133v32.485c0 1.788 1.49 3.278 3.278 3.278h35.763c1.788 0 3.248-1.49 3.248-3.278v-32.485c0-1.788-1.46-3.278-3.248-3.278h-35.763c-1.787-.001-3.278 1.49-3.278 3.278z" fill="#f9f7f8" fill-rule="evenodd"/></g><g><path clip-rule="evenodd" d="m166.117 197.854c-1.788 0-3.248 1.49-3.248 3.278v32.485c0 1.788 1.46 3.278 3.248 3.278h35.763c1.788 0 3.278-1.49 3.278-3.278v-32.485c0-1.788-1.49-3.278-3.278-3.278z" fill="#f9f7f8" fill-rule="evenodd"/></g><g><path clip-rule="evenodd" d="m484.314 192.222v39.519h27.686v-39.519c0-3.219-2.623-5.841-5.811-5.841h-27.686c3.188-.001 5.811 2.622 5.811 5.841z" fill="#6a5d6a" fill-rule="evenodd"/></g><g><path clip-rule="evenodd" d="m484.314 231.74v278.508h24.596c1.707 0 3.091-1.384 3.091-3.091v-275.417z" fill="#cbe2ff" fill-rule="evenodd"/></g><g><path clip-rule="evenodd" d="m83.744 186.38h25.719v45.36h-25.719z" fill="#6a5d6a" fill-rule="evenodd"/></g><g><path clip-rule="evenodd" d="m168.948 148.918h174.104v-142.011c0-2.831-2.325-5.156-5.186-5.156h-163.762c-2.831 0-5.156 2.325-5.156 5.156z" fill="#faf5dc" fill-rule="evenodd"/></g><g><path clip-rule="evenodd" d="m312.862 6.907v93.73 48.281h30.19v-48.281-93.73c0-2.831-2.325-5.156-5.186-5.156h-30.19c2.862 0 5.186 2.325 5.186 5.156z" fill="#f5ebcd" fill-rule="evenodd"/></g><g><path d="m290.242 466.774c-4.267 0-7.726-3.459-7.726-7.726v-20.832c0-4.267 3.459-7.726 7.726-7.726s7.726 3.459 7.726 7.726v20.832c.001 4.266-3.458 7.726-7.726 7.726z" fill="#7e707d"/></g><g><path d="m221.727 466.893c-4.267 0-7.726-3.459-7.726-7.726v-20.802c0-4.267 3.459-7.726 7.726-7.726s7.726 3.459 7.726 7.726v20.802c.001 4.267-3.459 7.726-7.726 7.726z" fill="#7e707d"/></g><g><path d="m479.516 341.094h-44.494c-4.267 0-7.726-3.459-7.726-7.726s3.459-7.726 7.726-7.726h44.494c4.267 0 7.726 3.459 7.726 7.726s-3.459 7.726-7.726 7.726z" fill="#f9f7f8"/></g><g><path d="m479.516 391.908h-44.494c-4.267 0-7.726-3.459-7.726-7.726s3.459-7.726 7.726-7.726h44.494c4.267 0 7.726 3.459 7.726 7.726s-3.459 7.726-7.726 7.726z" fill="#f9f7f8"/></g><g><path d="m479.516 442.722h-44.494c-4.267 0-7.726-3.459-7.726-7.726s3.459-7.726 7.726-7.726h44.494c4.267 0 7.726 3.459 7.726 7.726s-3.459 7.726-7.726 7.726z" fill="#f9f7f8"/></g><g><path d="m479.516 290.281h-44.494c-4.267 0-7.726-3.459-7.726-7.726s3.459-7.726 7.726-7.726h44.494c4.267 0 7.726 3.459 7.726 7.726 0 4.266-3.459 7.726-7.726 7.726z" fill="#f9f7f8"/></g><g><path d="m76.979 341.094h-44.495c-4.267 0-7.726-3.459-7.726-7.726s3.459-7.726 7.726-7.726h44.494c4.267 0 7.726 3.459 7.726 7.726.001 4.267-3.458 7.726-7.725 7.726z" fill="#f9f7f8"/></g><g><path d="m76.979 391.908h-44.495c-4.267 0-7.726-3.459-7.726-7.726s3.459-7.726 7.726-7.726h44.494c4.267 0 7.726 3.459 7.726 7.726.001 4.267-3.458 7.726-7.725 7.726z" fill="#f9f7f8"/></g><g><path d="m76.979 442.722h-44.495c-4.267 0-7.726-3.459-7.726-7.726s3.459-7.726 7.726-7.726h44.494c4.267 0 7.726 3.459 7.726 7.726.001 4.267-3.458 7.726-7.725 7.726z" fill="#f9f7f8"/></g><g><path d="m76.979 290.281h-44.495c-4.267 0-7.726-3.459-7.726-7.726s3.459-7.726 7.726-7.726h44.494c4.267 0 7.726 3.459 7.726 7.726.001 4.266-3.458 7.726-7.725 7.726z" fill="#f9f7f8"/></g><g><path d="m201.879 244.623h-35.763c-6.051 0-10.975-4.937-10.975-11.005v-32.485c0-6.068 4.924-11.005 10.975-11.005h35.763c6.068 0 11.005 4.937 11.005 11.005v32.485c0 6.068-4.937 11.005-11.005 11.005zm-31.284-15.453h26.837v-23.589h-26.837zm31.284-23.589h.01z" fill="#bed8fb"/></g><g><path d="m273.881 244.623h-35.763c-6.068 0-11.005-4.937-11.005-11.005v-32.485c0-6.068 4.937-11.005 11.005-11.005h35.763c6.051 0 10.975 4.937 10.975 11.005v32.485c0 6.068-4.923 11.005-10.975 11.005zm-31.314-15.453h26.837v-23.589h-26.837zm31.314-23.589h.01z" fill="#bed8fb"/></g><g><path d="m345.853 244.623h-35.732c-6.068 0-11.005-4.937-11.005-11.005v-32.485c0-6.068 4.937-11.005 11.005-11.005h35.732c6.068 0 11.005 4.937 11.005 11.005v32.485c0 6.068-4.937 11.005-11.005 11.005zm-31.284-15.453h26.836v-23.589h-26.836zm31.284-23.589h.01z" fill="#bed8fb"/></g><g><path d="m201.879 315.404h-35.763c-6.051 0-10.975-4.924-10.975-10.975v-32.485c0-6.068 4.924-11.005 10.975-11.005h35.763c6.068 0 11.005 4.937 11.005 11.005v32.485c0 6.052-4.937 10.975-11.005 10.975zm-31.284-15.452h26.837v-23.559h-26.837zm31.284-23.56h.01z" fill="#bed8fb"/></g><g><path d="m273.881 315.404h-35.763c-6.068 0-11.005-4.924-11.005-10.975v-32.485c0-6.068 4.937-11.005 11.005-11.005h35.763c6.051 0 10.975 4.937 10.975 11.005v32.485c0 6.052-4.923 10.975-10.975 10.975zm-31.314-15.452h26.837v-23.559h-26.837zm31.314-23.56h.01z" fill="#bed8fb"/></g><g><path d="m345.853 315.404h-35.732c-6.068 0-11.005-4.924-11.005-10.975v-32.485c0-6.068 4.937-11.005 11.005-11.005h35.732c6.068 0 11.005 4.937 11.005 11.005v32.485c0 6.052-4.937 10.975-11.005 10.975zm-31.284-15.452h26.836v-23.559h-26.836zm31.284-23.56h.01z" fill="#bed8fb"/></g><path d="m329.606 368.825h-147.212c-8.458 0-15.329 6.706-15.329 14.938v126.486h15.453v-125.971h65.756v125.548c0 .144 0 .288.021.422h15.411c.021-.134.021-.278.021-.422v-125.538h65.726v125.96h15.453v-126.485c-.001-8.231-6.862-14.938-15.3-14.938z" fill="#7e707d"/><g><path clip-rule="evenodd" d="m288.723 58.377h-15.795v-15.766c0-5.394-4.411-9.805-9.775-9.805h-14.305c-5.394 0-9.805 4.411-9.805 9.805v15.766h-15.765c-5.394 0-9.805 4.411-9.805 9.805v14.276c0 5.394 4.411 9.805 9.805 9.805h15.765v15.796c0 5.394 4.411 9.805 9.805 9.805h14.305c5.364 0 9.775-4.411 9.775-9.805v-15.796h15.795c5.394 0 9.805-4.411 9.805-9.805v-14.276c0-5.394-4.411-9.805-9.805-9.805z" fill="#ff8086" fill-rule="evenodd"/></g></g></svg>