<svg width="25" height="25" viewBox="0 0 46 65" fill="none" xmlns="http://www.w3.org/2000/svg">
<g clip-path="url(#clip0)">
<path d="M44.7416 64.2713L16.9548 25.093L18.4463 22.9567L44.1547 59.2037L44.7416 64.2713Z" fill="#A41F04"/>
<path d="M16.4593 26.731L12.2399 20.7827L15.3769 16.2919L19.5963 22.2402C19.7127 22.404 19.8036 22.6005 19.8632 22.8171L20.0704 23.5702C20.154 23.8758 20.1035 24.222 19.9416 24.4542L18.0223 27.2023C17.8601 27.4342 17.6168 27.5084 17.4011 27.392L16.8695 27.1035C16.7161 27.0214 16.5763 26.8945 16.4593 26.731Z" fill="#A41F04"/>
<path d="M9.21298 19.4696L2.65198 10.2188L7.87032 2.7497L14.4296 12.0005C14.6274 12.2788 14.7888 12.6048 14.9062 12.9632L15.6251 15.1649C15.7282 15.4803 15.6826 15.8527 15.5107 16.0987L12.1071 20.972C11.9355 21.2196 11.6731 21.2883 11.4496 21.1441L9.89458 20.1395C9.64144 19.9752 9.41057 19.7485 9.21298 19.4696Z" fill="#A41F04"/>
<path d="M8.08089 2.94095L2.78805 10.5191C2.33404 11.1692 1.59364 11.1713 1.13443 10.5238C0.675218 9.87634 0.671001 8.82437 1.12501 8.17433L6.41785 0.596131C6.87186 -0.0539132 7.61226 -0.056 8.07147 0.59147C8.53078 1.23908 8.535 2.2909 8.08089 2.94095Z" fill="#A41F04"/>
</g>
<defs>
<clipPath id="clip0">
<rect width="45.2343" height="64.2697" fill="white" transform="matrix(-0.999996 0.00281852 -0.00400867 -0.999992 45.4918 64.2692)"/>
</clipPath>
</defs>
</svg>
