<svg width="1914" height="1278" viewBox="0 0 1914 1278" fill="none" xmlns="http://www.w3.org/2000/svg">
<path fill-rule="evenodd" clip-rule="evenodd" d="M1912.13 130.705C1913.38 133.125 1914 135.545 1914 137.966V1074.69C1914 1123.09 1901.54 1169.08 1876.61 1212.65C1851.69 1256.21 1814.31 1278 1764.47 1278H209.344C159.5 1278 112.148 1256.21 67.2891 1212.65C22.4294 1169.08 4.45638e-07 1123.09 4.45638e-07 1074.69V137.966C4.45638e-07 135.545 0.623051 133.125 1.86915 130.705C-0.62305 122.233 -0.62305 114.064 1.86915 106.197C4.36135 98.3308 8.72266 90.7673 14.9531 83.506C16.1992 82.2957 17.4453 80.7824 18.6914 78.9676C19.9375 77.1521 21.8066 75.6396 24.2989 74.429C42.9904 50.2243 69.4696 31.7685 103.737 19.0611C138.005 6.35363 173.207 0 209.344 0H1764.47C1804.34 0 1836.43 8.16898 1860.73 24.5071C1885.03 40.8453 1900.91 65.3521 1908.39 98.0286C1910.88 102.869 1912.44 108.013 1913.07 113.459C1913.69 118.905 1913.38 124.653 1912.13 130.705ZM181.307 116.181C171.338 116.181 161.369 116.787 151.401 117.997L957 742.474L1764.47 116.181H181.307ZM1764.47 1161.81C1780.67 1161.81 1789.7 1151.23 1791.57 1130.05C1793.44 1108.87 1794.38 1090.41 1794.38 1074.69V243.256L996.253 862.289C990.024 867.13 983.788 870.762 977.56 873.182C971.331 875.603 964.481 876.813 957 876.813C949.519 876.813 942.669 875.603 936.44 873.182C930.212 870.762 923.976 867.13 917.747 862.289L119.625 243.256V1074.69C119.625 1090.41 130.528 1108.87 152.335 1130.05C174.142 1151.23 193.144 1161.81 209.344 1161.81H1764.47Z" fill="#BB2000"/>
</svg>
