<svg width="12" height="12" viewBox="0 0 153 360" fill="none" xmlns="http://www.w3.org/2000/svg">
<g clip-path="url(#clip0)">
<path d="M68.6775 352.737C11.1562 204.631 0.479172 189.431 0.479172 135C0.479172 60.4413 34.5098 0 76.4891 0C118.468 0 152.499 60.4413 152.499 135C152.499 189.431 141.822 204.631 84.3007 352.737C80.5259 362.422 72.4519 362.421 68.6775 352.737ZM76.4891 191.25C93.9805 191.25 108.16 166.066 108.16 135C108.16 103.934 93.9805 78.75 76.4891 78.75C58.9977 78.75 44.8183 103.934 44.8183 135C44.8183 166.066 58.9977 191.25 76.4891 191.25Z" fill="#BB2000"/>
</g>
<defs>
<clipPath id="clip0">
<rect width="152.02" height="360" fill="white" transform="translate(0.479172)"/>
</clipPath>
</defs>
</svg>
