<svg width="188" height="320" viewBox="0 0 188 320" fill="none" xmlns="http://www.w3.org/2000/svg">
<path d="M93.9482 180C123 180 146.57 139.688 146.57 90C146.57 40.3125 123 0 93.9482 0C64.8963 0 41.3259 40.3125 41.3259 90C41.3259 139.688 64.8963 180 93.9482 180ZM140.724 200H120.588C112.476 206.375 103.449 210 93.9482 210C84.4469 210 75.4573 206.375 67.3082 200H47.1728C21.3368 200 0.397491 235.812 0.397491 280V290C0.397491 306.562 8.25429 320 17.9382 320H169.958C179.642 320 187.499 306.562 187.499 290V280C187.499 235.812 166.56 200 140.724 200Z" fill="#BB2000"/>
</svg>
