<svg width="12" height="12" viewBox="0 0 12 16" fill="none" xmlns="http://www.w3.org/2000/svg">
<path d="M6 9.24165C7.86328 9.24165 9.375 7.36234 9.375 5.04599C9.375 2.72964 7.86328 0.850342 6 0.850342C4.13672 0.850342 2.625 2.72964 2.625 5.04599C2.625 7.36234 4.13672 9.24165 6 9.24165ZM9 10.174H7.70859C7.18828 10.4712 6.60938 10.6402 6 10.6402C5.39062 10.6402 4.81406 10.4712 4.29141 10.174H3C1.34297 10.174 0 11.8435 0 13.9035V14.3697C0 15.1418 0.503906 15.7682 1.125 15.7682H10.875C11.4961 15.7682 12 15.1418 12 14.3697V13.9035C12 11.8435 10.657 10.174 9 10.174Z" fill="#BB2000"/>
</svg>
