<svg width="12" height="12" viewBox="0 0 118 320" fill="none" xmlns="http://www.w3.org/2000/svg">
<g clip-path="url(#clip0)">
<path d="M18.02 0H99.8768C109.561 0 117.418 13.4375 117.418 30V290C117.418 306.562 109.561 320 99.8768 320H18.02C8.336 320 0.479202 306.562 0.479202 290V30C0.479202 13.4375 8.336 0 18.02 0ZM58.9484 300C65.4165 300 70.6422 291.062 70.6422 280C70.6422 268.938 65.4165 260 58.9484 260C52.4802 260 47.2545 268.938 47.2545 280C47.2545 291.062 52.4802 300 58.9484 300ZM18.02 232.5C18.02 236.625 19.9933 240 22.4051 240H95.4916C97.9035 240 99.8768 236.625 99.8768 232.5V37.5C99.8768 33.375 97.9035 30 95.4916 30H22.4051C19.9933 30 18.02 33.375 18.02 37.5V232.5Z" fill="#BB2000"/>
</g>
<defs>
<clipPath id="clip0">
<rect width="116.938" height="320" fill="white" transform="matrix(-1 0 0 1 117.418 0)"/>
</clipPath>
</defs>
</svg>
